<?xml version="1.0" encoding="iso-8859-1"?>
<!-- Generator: Adobe Illustrator 16.0.0, SVG Export Plug-In . SVG Version: 6.00 Build 0)  -->
<!DOCTYPE svg PUBLIC "-//W3C//DTD SVG 1.1//EN" "http://www.w3.org/Graphics/SVG/1.1/DTD/svg11.dtd">
<svg version="1.1" id="Capa_1" xmlns="http://www.w3.org/2000/svg" xmlns:xlink="http://www.w3.org/1999/xlink" x="0px" y="0px"
	 width="424.19px" height="424.19px" viewBox="0 0 424.19 424.19" style="enable-background:new 0 0 424.19 424.19;"
	 xml:space="preserve">
<g>
	<g>
		<path style="fill:#030303;" d="M143.794,179.042c-31.501,0-57.123-33.499-57.123-74.666c0-41.167,25.622-74.66,57.123-74.66
			c31.495,0,57.123,33.493,57.123,74.66C200.917,145.543,175.289,179.042,143.794,179.042z M143.794,41.426
			c-25.042,0-45.413,28.239-45.413,62.95c0,34.717,20.37,62.955,45.413,62.955c25.036,0,45.412-28.238,45.412-62.955
			C189.206,69.665,168.83,41.426,143.794,41.426z"/>
	</g>
	<g>
		<path style="fill:#030303;" d="M292.253,394.474c-15.41,0-28.71-8.755-42.799-18.023c-8.497-5.598-17.154-11.293-26.761-15.581
			c-1.39-0.298-7.056-1.001-15.57-1.001c-7.722,0-11.582,0.577-12.197,0.726c-9.486,3.969-18.701,9.641-27.618,15.119
			c-15.258,9.389-28.333,17.439-43.563,17.439c-7.736,0-15.078-2.207-21.828-6.564c-16.028-10.281-25.414-28.144-26.438-50.295
			c-0.938-20.208,5.358-41.925,17.717-61.16c1.29-2.002,2.705-3.74,4.177-5.489c0.577-0.698,1.644-1.979,1.901-2.437
			c14.609-30.02,51.033-62.157,109.399-62.157l2.207,0.012c59.271,0.837,95.991,34.757,109.423,63.553
			c0.338,0.721,1.298,2.035,2.15,3.19c1.709,2.311,3.104,4.254,4.368,6.461c24.262,42.72,17.635,92.438-14.764,110.85
			C305.834,392.672,299.166,394.474,292.253,394.474z M207.129,348.158c8.554,0,16.753,0.698,19.499,1.664
			c11.081,4.866,20.259,10.91,29.139,16.754c12.705,8.371,24.588,16.188,36.492,16.188c4.854,0,9.572-1.286,14.032-3.825
			c26.795-15.232,31.449-57.786,10.378-94.873c-0.943-1.658-2.133-3.3-3.482-5.123c-1.44-1.956-2.67-3.626-3.487-5.41
			c-11.997-25.696-45.115-56.002-98.928-56.768l-2.124-0.012c-52.926,0-85.773,28.738-98.856,55.625
			c-0.76,1.543-1.896,2.95-3.419,4.763c-1.152,1.378-2.318,2.784-3.308,4.323c-11.059,17.205-16.7,36.486-15.868,54.281
			c0.843,18.252,8.32,32.815,21.074,40.998c4.837,3.116,10.041,4.699,15.493,4.699c11.916,0,23.678-7.244,37.31-15.633
			c9.421-5.792,19.047-11.722,29.942-16.228C193.804,348.644,199.822,348.158,207.129,348.158z"/>
	</g>
	<g>
		<path style="fill:#030303;" d="M272.915,179.042c-31.501,0-57.126-33.499-57.126-74.666c0-41.167,25.625-74.66,57.126-74.66
			c31.5,0,57.129,33.493,57.129,74.66C330.044,145.543,304.415,179.042,272.915,179.042z M272.915,41.426
			c-25.039,0-45.418,28.239-45.418,62.95c0,34.717,20.373,62.955,45.418,62.955c25.039,0,45.418-28.238,45.418-62.955
			C318.333,69.665,297.954,41.426,272.915,41.426z"/>
	</g>
	<g>
		<path style="fill:#030303;" d="M371.259,273.926c-29.676,0-52.926-29.951-52.926-68.189c0-38.248,23.25-68.202,52.926-68.202
			c29.677,0,52.932,29.954,52.932,68.202C424.19,243.97,400.936,273.926,371.259,273.926z M371.259,149.246
			c-23.112,0-41.215,24.813-41.215,56.491c0,31.669,18.103,56.479,41.215,56.479s41.222-24.811,41.222-56.479
			C412.48,174.053,394.371,149.246,371.259,149.246z"/>
	</g>
	<g>
		<path style="fill:#030303;" d="M52.932,273.926C23.252,273.926,0,243.975,0,205.737c0-38.248,23.252-68.202,52.932-68.202
			c29.682,0,52.932,29.954,52.932,68.202C105.863,243.97,82.614,273.926,52.932,273.926z M52.932,149.246
			c-23.115,0-41.221,24.813-41.221,56.491c0,31.669,18.106,56.479,41.221,56.479c23.118,0,41.221-24.811,41.221-56.479
			C94.153,174.053,76.05,149.246,52.932,149.246z"/>
	</g>
</g>
<g>
</g>
<g>
</g>
<g>
</g>
<g>
</g>
<g>
</g>
<g>
</g>
<g>
</g>
<g>
</g>
<g>
</g>
<g>
</g>
<g>
</g>
<g>
</g>
<g>
</g>
<g>
</g>
<g>
</g>
</svg>
